<svg width="20" height="20" viewBox="0 0 20 20" fill="none" xmlns="http://www.w3.org/2000/svg">
<path d="M19.1892 16.268H0.810798C0.739117 16.268 0.670373 16.2395 0.619688 16.1889C0.569002 16.1382 0.540527 16.0694 0.540527 15.9977V4.00855C0.540527 3.93687 0.569002 3.86813 0.619688 3.81744C0.670373 3.76676 0.739117 3.73828 0.810798 3.73828H19.1892C19.2609 3.73828 19.3296 3.76676 19.3803 3.81744C19.431 3.86813 19.4594 3.93687 19.4594 4.00855V15.9977C19.4594 16.0694 19.431 16.1382 19.3803 16.1889C19.3296 16.2395 19.2609 16.268 19.1892 16.268ZM1.08107 15.7275H18.9189V4.27882H1.08107V15.7275Z" fill="#49585B"/>
<path d="M9.99959 11.5456C9.00313 11.5474 8.04364 11.1684 7.31743 10.4861L0.625264 4.19908C0.59939 4.17476 0.578558 4.14559 0.563958 4.11323C0.549357 4.08087 0.541274 4.04595 0.54017 4.01046C0.53794 3.93879 0.564272 3.86917 0.613372 3.81691C0.662473 3.76466 0.730321 3.73405 0.801991 3.73182C0.87366 3.72959 0.94328 3.75592 0.995535 3.80502L7.68743 10.092C8.31431 10.6789 9.14088 11.0054 9.99959 11.0054C10.8583 11.0054 11.6849 10.6789 12.3118 10.092L19.0036 3.80502C19.0559 3.75592 19.1255 3.72959 19.1972 3.73182C19.2689 3.73405 19.3367 3.76466 19.3858 3.81691C19.4349 3.86917 19.4612 3.93879 19.459 4.01046C19.4568 4.08213 19.4262 4.14998 19.3739 4.19908L12.6818 10.4864C11.9555 11.1686 10.996 11.5475 9.99959 11.5456Z" fill="#49585B"/>
<path d="M0.810946 16.2667C0.755399 16.2668 0.701191 16.2497 0.6557 16.2178C0.610209 16.1859 0.575645 16.1408 0.556711 16.0886C0.537778 16.0364 0.535395 15.9796 0.549888 15.926C0.56438 15.8723 0.595042 15.8245 0.637703 15.7889L7.39635 10.144C7.42355 10.121 7.45505 10.1035 7.48903 10.0926C7.52301 10.0818 7.55881 10.0778 7.59435 10.0808C7.62989 10.0839 7.66448 10.0939 7.69611 10.1104C7.72775 10.1269 7.75581 10.1495 7.77868 10.1769C7.80155 10.2042 7.81877 10.2359 7.82935 10.2699C7.83993 10.304 7.84366 10.3398 7.84033 10.3753C7.837 10.4109 7.82667 10.4454 7.80994 10.4769C7.7932 10.5084 7.7704 10.5363 7.74284 10.5589L0.98419 16.2038C0.935606 16.2444 0.874289 16.2667 0.810946 16.2667Z" fill="#49585B"/>
<path d="M19.1893 16.2667C19.1259 16.2667 19.0646 16.2444 19.016 16.2038L12.2574 10.5589C12.2298 10.5363 12.207 10.5084 12.1903 10.4769C12.1735 10.4454 12.1632 10.4109 12.1599 10.3753C12.1565 10.3398 12.1603 10.304 12.1709 10.2699C12.1814 10.2359 12.1987 10.2042 12.2215 10.1769C12.2444 10.1495 12.2725 10.1269 12.3041 10.1104C12.3357 10.0939 12.3703 10.0839 12.4059 10.0808C12.4414 10.0778 12.4772 10.0818 12.5112 10.0926C12.5452 10.1035 12.5767 10.121 12.6038 10.144L19.3625 15.7889C19.4052 15.8245 19.4358 15.8723 19.4503 15.926C19.4648 15.9796 19.4624 16.0364 19.4435 16.0886C19.4246 16.1408 19.39 16.1859 19.3445 16.2178C19.299 16.2497 19.2448 16.2668 19.1893 16.2667Z" fill="#49585B"/>
</svg>
