<svg width="20" height="20" viewBox="0 0 20 20" fill="none" xmlns="http://www.w3.org/2000/svg">
<path d="M18.5156 3.47453C18.5156 2.94671 18.3059 2.44051 17.9327 2.06728C17.5595 1.69405 17.0533 1.48438 16.5255 1.48438H3.47453C2.94671 1.48438 2.44051 1.69405 2.06728 2.06728C1.69405 2.44051 1.48438 2.94671 1.48438 3.47453V16.5253C1.48435 16.7867 1.53582 17.0455 1.63582 17.287C1.73583 17.5284 1.88242 17.7478 2.06722 17.9327C2.25203 18.1175 2.47143 18.2641 2.7129 18.3641C2.95436 18.4641 3.21317 18.5156 3.47453 18.5156H16.5253C16.7867 18.5156 17.0455 18.4642 17.287 18.3642C17.5284 18.2642 17.7478 18.1176 17.9327 17.9328C18.1175 17.748 18.2641 17.5286 18.3641 17.2871C18.4641 17.0456 18.5156 16.7868 18.5156 16.5255V3.47453ZM16.5219 17.8906H3.47809C3.11541 17.8896 2.7679 17.745 2.51145 17.4886C2.25499 17.2321 2.11045 16.8846 2.10938 16.5219V6.71875H6.2025C5.48766 7.61719 5.05859 8.71684 5.05859 9.93324C5.05859 12.7389 7.34113 15.0234 10.1468 15.0234C12.9525 15.0234 15.235 12.7379 15.235 9.93227C15.235 8.7159 14.8058 7.61719 14.0911 6.71875H17.8906V16.5219C17.8896 16.8846 17.745 17.2321 17.4886 17.4886C17.2321 17.745 16.8846 17.8896 16.5219 17.8906ZM10.1469 5.47387C11.0296 5.47389 11.8925 5.73567 12.6265 6.22611C13.3605 6.71654 13.9325 7.4136 14.2703 8.22915C14.6081 9.04469 14.6965 9.94209 14.5242 10.8079C14.352 11.6736 13.9269 12.4689 13.3027 13.0931C12.6785 13.7172 11.8833 14.1423 11.0175 14.3145C10.1517 14.4867 9.25434 14.3983 8.4388 14.0605C7.62327 13.7227 6.92621 13.1507 6.43579 12.4167C5.94537 11.6827 5.6836 10.8198 5.68359 9.93711C5.68493 8.7538 6.15558 7.61934 6.99231 6.78261C7.82903 5.94588 8.96349 5.47521 10.1468 5.47387H10.1469ZM3.47809 2.10938H16.5219C16.8846 2.11045 17.2321 2.25499 17.4886 2.51145C17.745 2.7679 17.8896 3.11541 17.8906 3.47809V6.09375H13.4865C12.5613 5.28614 11.3749 4.84114 10.1468 4.84114C8.91876 4.84114 7.7323 5.28614 6.80715 6.09375H2.10938V3.47809C2.11045 3.11541 2.25499 2.7679 2.51145 2.51145C2.7679 2.25499 3.11541 2.11045 3.47809 2.10938Z" fill="#49585B"/>
<path d="M14.6765 5.4055C14.9415 5.4055 15.2006 5.3269 15.421 5.17965C15.6414 5.0324 15.8131 4.82311 15.9146 4.57825C16.016 4.33338 16.0425 4.06393 15.9908 3.80398C15.9391 3.54403 15.8115 3.30526 15.6241 3.11784C15.4367 2.93043 15.1979 2.8028 14.9379 2.75109C14.678 2.69938 14.4085 2.72592 14.1637 2.82735C13.9188 2.92878 13.7095 3.10054 13.5623 3.32091C13.415 3.54129 13.3364 3.80038 13.3364 4.06542C13.3368 4.42071 13.4781 4.76134 13.7294 5.01256C13.9806 5.26379 14.3212 5.40511 14.6765 5.4055ZM14.6765 3.35038C14.8179 3.35038 14.9562 3.39233 15.0738 3.47091C15.1914 3.54949 15.2831 3.66119 15.3372 3.79187C15.3913 3.92254 15.4054 4.06633 15.3778 4.20505C15.3502 4.34377 15.2821 4.47118 15.1821 4.57118C15.082 4.67118 14.9546 4.73926 14.8159 4.76683C14.6771 4.79439 14.5334 4.7802 14.4027 4.72604C14.272 4.67188 14.1604 4.58019 14.0818 4.46257C14.0033 4.34494 13.9614 4.20666 13.9614 4.06523C13.9617 3.87568 14.0371 3.69398 14.1712 3.55997C14.3052 3.42596 14.487 3.35059 14.6765 3.35038Z" fill="#49585B"/>
<path d="M10.147 13.4261C10.8371 13.4261 11.5118 13.2215 12.0856 12.8381C12.6594 12.4546 13.1066 11.9097 13.3707 11.2721C13.6348 10.6345 13.7039 9.93293 13.5693 9.25607C13.4346 8.57921 13.1023 7.95748 12.6143 7.46949C12.1263 6.9815 11.5046 6.64918 10.8277 6.51455C10.1509 6.37992 9.44928 6.44903 8.81169 6.71313C8.1741 6.97723 7.62915 7.42447 7.24575 7.99829C6.86234 8.57211 6.65771 9.24673 6.65771 9.93685C6.65877 10.8619 7.02673 11.7488 7.68087 12.403C8.33502 13.0571 9.22192 13.4251 10.147 13.4261ZM10.147 7.07251C10.7135 7.07251 11.2673 7.2405 11.7383 7.55523C12.2094 7.86996 12.5765 8.3173 12.7933 8.84068C13.0101 9.36406 13.0668 9.93997 12.9563 10.4956C12.8458 11.0512 12.573 11.5616 12.1724 11.9622C11.7718 12.3627 11.2615 12.6355 10.7058 12.7461C10.1502 12.8566 9.5743 12.7999 9.05092 12.5831C8.52754 12.3663 8.08019 11.9992 7.76546 11.5282C7.45072 11.0571 7.28272 10.5034 7.28272 9.93685C7.28357 9.17745 7.58562 8.4494 8.12259 7.91242C8.65957 7.37544 9.38761 7.07338 10.147 7.07251Z" fill="#49585B"/>
</svg>
