<svg width="20" height="20" viewBox="0 0 20 20" fill="none" xmlns="http://www.w3.org/2000/svg">
<path d="M10.0001 17.7838C9.95802 17.7836 9.91656 17.7736 9.87902 17.7545C9.84148 17.7355 9.80891 17.7079 9.7839 17.674C9.5458 17.3513 3.98877 9.77458 3.98877 6.55188C3.98877 4.95757 4.62211 3.42856 5.74945 2.30121C6.8768 1.17386 8.40581 0.540527 10.0001 0.540527C11.5944 0.540527 13.1234 1.17386 14.2508 2.30121C15.3781 3.42856 16.0115 4.95757 16.0115 6.55188C16.0115 9.77458 10.4544 17.3519 10.2177 17.673C10.1927 17.7072 10.1599 17.7351 10.1221 17.7543C10.0843 17.7736 10.0425 17.7837 10.0001 17.7838ZM10.0001 1.08107C8.5497 1.08278 7.15917 1.65972 6.13357 2.68533C5.10797 3.71093 4.53103 5.10146 4.52931 6.55188C4.52931 9.25296 8.95742 15.5946 10.0001 17.0513C11.0428 15.5946 15.4709 9.25296 15.4709 6.55188C15.4692 5.10146 14.8923 3.71093 13.8667 2.68533C12.8411 1.65972 11.4505 1.08278 10.0001 1.08107Z" fill="#49585B"/>
<path d="M15.8948 19.4595H4.10507C4.0636 19.4595 4.02269 19.4499 3.98551 19.4315C3.94833 19.4132 3.91588 19.3865 3.89066 19.3536C3.86545 19.3206 3.84814 19.2824 3.8401 19.2417C3.83205 19.201 3.83347 19.159 3.84426 19.119L5.27534 13.8006C5.29078 13.7432 5.3247 13.6925 5.37185 13.6564C5.41899 13.6202 5.47674 13.6006 5.53615 13.6006H7.53398C7.60566 13.6006 7.67441 13.6291 7.72509 13.6797C7.77578 13.7304 7.80425 13.7992 7.80425 13.8709C7.80425 13.9425 7.77578 14.0113 7.72509 14.062C7.67441 14.1127 7.60566 14.1411 7.53398 14.1411H5.74344L4.45777 18.919H15.5418L14.2532 14.1411H12.4659C12.3942 14.1411 12.3254 14.1127 12.2748 14.062C12.2241 14.0113 12.1956 13.9425 12.1956 13.8709C12.1956 13.7992 12.2241 13.7304 12.2748 13.6797C12.3254 13.6291 12.3942 13.6006 12.4659 13.6006H14.4594C14.5188 13.6006 14.5766 13.6201 14.6238 13.6563C14.671 13.6925 14.705 13.7432 14.7205 13.8006L16.1556 19.119C16.1664 19.159 16.1678 19.201 16.1598 19.2417C16.1517 19.2824 16.1344 19.3206 16.1092 19.3536C16.084 19.3865 16.0515 19.4132 16.0143 19.4315C15.9772 19.4499 15.9363 19.4595 15.8948 19.4595Z" fill="#49585B"/>
<path d="M9.99987 10.5779C9.20151 10.5779 8.42109 10.3411 7.75729 9.89756C7.09348 9.45402 6.57612 8.82359 6.27061 8.086C5.96511 7.34841 5.88519 6.5368 6.04096 5.75379C6.19673 4.97078 6.5812 4.25155 7.14574 3.68705C7.71028 3.12255 8.42953 2.73813 9.21255 2.58241C9.99557 2.42669 10.8072 2.50667 11.5448 2.81222C12.2823 3.11777 12.9127 3.63518 13.3562 4.29901C13.7997 4.96285 14.0364 5.74329 14.0364 6.54164C14.0351 7.61176 13.6094 8.63768 12.8527 9.39435C12.0959 10.151 11.07 10.5766 9.99987 10.5779ZM9.99987 3.0457C9.30843 3.0457 8.63253 3.25073 8.05762 3.63487C7.48272 4.01901 7.03463 4.565 6.77003 5.2038C6.50543 5.8426 6.4362 6.54552 6.5711 7.22366C6.70599 7.90181 7.03894 8.52473 7.52786 9.01364C8.01678 9.50256 8.63969 9.83552 9.31784 9.97041C9.99599 10.1053 10.6989 10.0361 11.3377 9.77147C11.9765 9.50687 12.5225 9.05878 12.9066 8.48388C13.2908 7.90898 13.4958 7.23307 13.4958 6.54164C13.4948 5.61476 13.1262 4.72614 12.4708 4.07074C11.8154 3.41534 10.9267 3.0467 9.99987 3.0457Z" fill="#49585B"/>
</svg>
