<svg width="20" height="20" viewBox="0 0 20 20" fill="none" xmlns="http://www.w3.org/2000/svg">
<g clip-path="url(#clip0_431_99)">
<path d="M14.0543 19.4595C13.3137 19.4522 12.5774 19.3455 11.8651 19.1422C9.59486 18.5159 7.18648 17.0143 5.08621 14.9141C0.615938 10.4438 -0.767846 5.08514 1.86756 2.44946L3.51107 0.805948C3.68129 0.636285 3.91182 0.541016 4.15215 0.541016C4.39249 0.541016 4.62302 0.636285 4.79324 0.805948L8.16864 4.18135C8.25288 4.26551 8.3197 4.36545 8.36529 4.47545C8.41089 4.58545 8.43435 4.70336 8.43435 4.82244C8.43435 4.94151 8.41089 5.05942 8.36529 5.16942C8.3197 5.27942 8.25288 5.37936 8.16864 5.46352L6.81729 6.81487C5.82351 7.80892 6.44188 10.1068 8.16864 11.8324C9.8954 13.5581 12.1924 14.1773 13.1862 13.1838L14.5376 11.8324C14.7103 11.6676 14.9399 11.5756 15.1786 11.5756C15.4174 11.5756 15.647 11.6676 15.8197 11.8324L19.194 15.207C19.2782 15.2912 19.345 15.3912 19.3906 15.5012C19.4362 15.6111 19.4596 15.729 19.4596 15.8481C19.4596 15.9672 19.4362 16.0851 19.3906 16.1951C19.345 16.3051 19.2782 16.405 19.194 16.4892L17.5505 18.1327C16.6732 19.01 15.47 19.4595 14.0543 19.4595ZM4.15242 1.08108C4.10423 1.08116 4.05653 1.09075 4.01206 1.10931C3.96758 1.12786 3.9272 1.155 3.89324 1.18919L2.24972 2.83189C-0.128656 5.21027 1.28567 10.3492 5.46837 14.5319C7.50351 16.567 9.82675 18.0184 12.0089 18.6208C14.177 19.2178 16.0089 18.9087 17.167 17.7505L18.8111 16.1081C18.8797 16.0394 18.9183 15.9463 18.9183 15.8492C18.9183 15.7521 18.8797 15.6589 18.8111 15.5903L15.4367 12.2138C15.367 12.1472 15.2743 12.11 15.1778 12.11C15.0814 12.11 14.9887 12.1472 14.9189 12.2138L13.5676 13.5651C12.3459 14.7876 9.75188 14.1811 7.7854 12.2138C5.81891 10.2465 5.21297 7.65352 6.43405 6.43162L7.7854 5.08027C7.81943 5.04629 7.84642 5.00592 7.86484 4.9615C7.88326 4.91707 7.89274 4.86945 7.89274 4.82135C7.89274 4.77326 7.88326 4.72564 7.86484 4.68121C7.84642 4.63678 7.81943 4.59642 7.7854 4.56244L4.41107 1.18919C4.37721 1.15502 4.33692 1.12788 4.29254 1.10933C4.24815 1.09077 4.20053 1.08118 4.15242 1.08108Z" fill="#49585B"/>
<path d="M6.62651 6.89191C6.55484 6.89189 6.48611 6.86341 6.43543 6.81272L2.1603 2.53893C2.10958 2.48826 2.08108 2.41951 2.08105 2.34781C2.08103 2.27612 2.10949 2.20735 2.16016 2.15664C2.21084 2.10592 2.27959 2.07742 2.35128 2.07739C2.42298 2.07737 2.49175 2.10582 2.54246 2.1565L6.8176 6.43245C6.85538 6.47024 6.88111 6.5184 6.89154 6.57082C6.90196 6.62324 6.89661 6.67757 6.87616 6.72695C6.85571 6.77633 6.82107 6.81853 6.77664 6.84823C6.7322 6.87793 6.67996 6.89379 6.62651 6.8938V6.89191Z" fill="#49585B"/>
<path d="M17.652 17.9191C17.5803 17.9191 17.5116 17.8906 17.4609 17.8399L13.1858 13.5645C13.1385 13.5132 13.1129 13.4457 13.1143 13.3759C13.1157 13.3062 13.144 13.2397 13.1933 13.1904C13.2426 13.141 13.309 13.1126 13.3787 13.1111C13.4485 13.1097 13.5161 13.1352 13.5674 13.1824L17.8434 17.4578C17.8812 17.4956 17.9069 17.5437 17.9173 17.5961C17.9277 17.6486 17.9224 17.7029 17.9019 17.7523C17.8815 17.8016 17.8469 17.8439 17.8024 17.8736C17.758 17.9033 17.7057 17.9191 17.6523 17.9191H17.652Z" fill="#49585B"/>
</g>
<defs>
<clipPath id="clip0_431_99">
<rect width="20" height="20" fill="white"/>
</clipPath>
</defs>
</svg>
